<svg xmlns="http://www.w3.org/2000/svg" viewBox="0 0 64 64" aria-labelledby="title" aria-describedby="desc" role="img" xmlns:xlink="http://www.w3.org/1999/xlink"><title>Pineapple Icon</title><desc>A flat styled Icon from food Pack @ Orion Icon Library</desc><path data-name="layer3" d="M50 41c0 11.6-6 21-18 21s-18-9.4-18-21 6-21 18-21 18 9.407 18 21z" fill="#fbb167"></path><path data-name="layer2" d="M32.006 18c-12 0-13.588-8-13.588-8s13.588-1.79 13.588 8" fill="#a7c180"></path><path data-name="opacity" d="M32.006 18c-12 0-13.588-8-13.588-8s13.588-1.79 13.588 8" fill="#21205e" opacity=".1"></path><path data-name="layer2" d="M46 2C34.584 2 34 12 34 18 46.668 18 46 7.128 46 2z" fill="#a7c180"></path><path data-name="layer1" d="M49.772 37.3l-2.082 2.081-6.368-6.368 5.278-5.281a17.588 17.588 0 0 0-1.172-1.655L39.909 31.6l-6.364-6.363 4.348-4.349a17.7 17.7 0 0 0-2.277-.55l-3.485 3.484-3.52-3.52a17.814 17.814 0 0 0-2.3.53l4.4 4.4-6.358 6.368-5.661-5.661a17.368 17.368 0 0 0-1.192 1.633l5.441 5.441-6.364 6.364-2.323-2.323a30.564 30.564 0 0 0-.209 2.619l1.118 1.118-1.133 1.132q.037 1.346.184 2.645l2.361-2.361 6.363 6.364-5.6 5.6a17.6 17.6 0 0 0 1.156 1.673l5.859-5.859 6.368 6.368-4.736 4.735a17.532 17.532 0 0 0 2.265.564l3.885-3.885 3.849 3.849a17.559 17.559 0 0 0 2.234-.594l-4.668-4.669 6.364-6.364 5.7 5.7A17.894 17.894 0 0 0 46.757 54l-5.431-5.431 6.364-6.364 2.12 2.119c.092-.87.15-1.757.168-2.66l-.873-.873.86-.86a31.035 31.035 0 0 0-.193-2.631zM32.131 26.65l6.369 6.364-6.364 6.364-6.363-6.364zM17.989 40.792l6.364-6.364 6.363 6.364-6.364 6.364zm14.145 14.147l-6.367-6.369 6.364-6.364 6.369 6.368zm7.778-7.778l-6.368-6.368 6.364-6.364 6.369 6.371z" fill="#eb9643"></path><path data-name="opacity" d="M14 41c0 11.6 6 21 18 21V20c-12 0-18 9.407-18 21z" fill="#21205e" opacity=".1"></path></svg>